# xmcd CD database file
#
# Track frame offsets:
#	150
#	16018
#	23120
#	35164
#	48373
#	56844
#	70127
#	84702
#	95739
#	110620
#	126628
#	140697
#	155235
#	172319
#	190913
#	204195
#	218108
#	233902
#
# Disc length: 3344 seconds
#
# Revision: 1
# Processed by: cddbd v1.5.2PL0 Copyright (c) Steve Scherf et al.
# Submitted via: CDex 1.70beta2
#
DISCID=130d0e12
DTITLE=Various Artist - Les Nuits Celtiques cd1
DYEAR=1900
DGENRE=Celtic
TTITLE0=The Blackwater Boys_Whiskey in the jar
TTITLE1=The Blarney Lads_Bold o Donague
TTITLE2=Peter Miln and Daniel James_The blackthorn stick-Kesh jig
TTITLE3=The Blarney Lady_Poor Paddy
TTITLE4=The Blarney Lads_I'll tell me ma
TTITLE5=The Greencastle Sound_Drunken pipers-My love she's but a Lassie yet
TTITLE6=The Greencastle Sound_Wi' a hundred pipers-Athernie lodge-Jackson's jig
TTITLE7=Peter Miln and Daniel James_The Banshee-Roscommon reel
TTITLE8=Straight Furrow_Dennis Murphy's-John Ryan's-Statent island
TTITLE9=The Greencastle Sound_Bobby Stenhouse-Braes of Glenifer
TTITLE10=The Blackwater Boys_Yhe holy ground
TTITLE11=Straight Furrow-Rakes of Mallow-Scartelen polka
TTITLE12=Peter Miln and Daniel James_The butterfly-Rocky road to Dublin
TTITLE13=The Dirk Campbell Band_The gander in the pratie hole
TTITLE14=Peter Miln and Daniel James_De'il amongst the tailors
TTITLE15=Straight Furrow_The railway-Fiery clockface
TTITLE16=Waxies Dargle_Geese in the bog-The wind shakes the barley
TTITLE17=Waxies Dargle_Tipping it up to Nancy-Swallow's tail
EXTD=
EXTT0=
EXTT1=
EXTT2=
EXTT3=
EXTT4=
EXTT5=
EXTT6=
EXTT7=
EXTT8=
EXTT9=
EXTT10=
EXTT11=
EXTT12=
EXTT13=
EXTT14=
EXTT15=
EXTT16=
EXTT17=
PLAYORDER=
